<svg xmlns="http://www.w3.org/2000/svg" width="430" height="902" viewBox="0 0 430 902" shape-rendering="crispEdges">
<defs>
  <linearGradient id="sky" x1="0" y1="0" x2="0" y2="1"><stop stop-color="#148bf0"/><stop offset="1" stop-color="#78cfff"/></linearGradient>
  <linearGradient id="greenBtn" x1="0" y1="0" x2="0" y2="1"><stop stop-color="#8add47"/><stop offset=".52" stop-color="#5cba2f"/><stop offset="1" stop-color="#2e7b18"/></linearGradient>
  <linearGradient id="stone" x1="0" y1="0" x2="0" y2="1"><stop stop-color="#878984"/><stop offset=".48" stop-color="#5c5e5a"/><stop offset="1" stop-color="#333632"/></linearGradient>
  <linearGradient id="parch" x1="0" y1="0" x2="0" y2="1"><stop stop-color="#fff0ca"/><stop offset="1" stop-color="#e7c98e"/></linearGradient>
  <linearGradient id="blueBtn" x1="0" y1="0" x2="0" y2="1"><stop stop-color="#47b7f4"/><stop offset="1" stop-color="#1371b8"/></linearGradient>
  <filter id="shadow" x="-30%" y="-30%" width="160%" height="160%"><feDropShadow dx="4" dy="5" stdDeviation="0" flood-color="#000" flood-opacity=".35"/></filter>
  <filter id="soft" x="-30%" y="-30%" width="160%" height="160%"><feDropShadow dx="0" dy="4" stdDeviation="3" flood-color="#000" flood-opacity=".35"/></filter>
  <pattern id="dirt" width="28" height="24" patternUnits="userSpaceOnUse"><rect width="28" height="24" fill="#754a2f"/><rect width="13" height="10" x="2" y="3" fill="#82573a"/><rect width="8" height="6" x="18" y="14" fill="#5e3b28"/></pattern>
  <pattern id="parchNoise" width="24" height="24" patternUnits="userSpaceOnUse"><rect width="24" height="24" fill="url(#parch)"/><rect x="2" y="3" width="6" height="5" fill="#f5dda8" opacity=".45"/><rect x="15" y="14" width="5" height="4" fill="#d8b97d" opacity=".35"/></pattern>
</defs>
<rect width="430" height="252" fill="url(#sky)"/><g fill="#fff" opacity=".9"><rect x="116" y="32" width="55" height="17"/><rect x="132" y="23" width="25" height="17"/><rect x="150" y="42" width="42" height="16"/><rect x="285" y="57" width="50" height="14"/><rect x="302" y="48" width="24" height="14"/></g>
<rect x="0" y="178" width="430" height="74" fill="#5da62e"/><rect x="0" y="211" width="430" height="41" fill="url(#dirt)"/><rect x="37" y="91" width="30" height="107" fill="#6d421f"/><rect x="43" y="91" width="9" height="107" fill="#8d5a2a"/><g fill="#58a72c"><rect x="8" y="47" width="83" height="52"/><rect x="18" y="34" width="63" height="76"/><rect x="29" y="25" width="42" height="87"/></g><g fill="#75bf3c"><rect x="18" y="44" width="18" height="16"/><rect x="48" y="34" width="17" height="20"/><rect x="65" y="58" width="18" height="17"/></g><g><rect x="12" y="161" width="11" height="12" fill="#f34d7c"/><rect x="17" y="171" width="3" height="15" fill="#3d7e21"/><rect x="78" y="182" width="9" height="10" fill="#f5d63e"/><rect x="82" y="190" width="3" height="12" fill="#3d7e21"/></g>
<g filter="url(#soft)"><rect x="315" y="110" width="98" height="91" fill="#cdb487" stroke="#6d472a" stroke-width="6"/><polygon points="302,115 364,73 425,115" fill="#a9672f" stroke="#5f3c23" stroke-width="6"/><rect x="346" y="150" width="27" height="51" fill="#744527" stroke="#4d2f1d" stroke-width="4"/><rect x="385" y="135" width="17" height="18" fill="#72bbee" stroke="#4d402e" stroke-width="4"/><rect x="326" y="135" width="17" height="18" fill="#72bbee" stroke="#4d402e" stroke-width="4"/></g>
<g transform="translate(360 132)" filter="url(#shadow)"><rect x="8" y="0" width="29" height="18" fill="#60351e"/><rect x="7" y="14" width="31" height="27" fill="#e0a475" stroke="#4f2c1c" stroke-width="3"/><rect x="12" y="23" width="5" height="5" fill="#2c211a"/><rect x="28" y="23" width="5" height="5" fill="#2c211a"/><rect x="18" y="33" width="11" height="4" fill="#8a3c2f"/><rect x="9" y="41" width="28" height="36" fill="#219b83" stroke="#2d3b34" stroke-width="3"/><rect x="15" y="50" width="16" height="10" fill="#e8f5dd"/><rect x="12" y="77" width="9" height="25" fill="#314a6e"/><rect x="27" y="77" width="9" height="25" fill="#314a6e"/><rect x="-1" y="35" width="11" height="33" fill="#df9f6e" transform="rotate(-30 4 35)"/></g>
<text x="89" y="111" font-family="Arial Black,Microsoft YaHei" font-size="53" font-weight="900" fill="#f3f3ef" stroke="#242824" stroke-width="7" paint-order="stroke" filter="url(#shadow)">成长</text><text x="225" y="111" font-family="Arial Black,Microsoft YaHei" font-size="53" font-weight="900" fill="#45cb70" stroke="#163b24" stroke-width="7" paint-order="stroke" filter="url(#shadow)">OS</text><rect x="96" y="125" width="239" height="29" rx="2" fill="#4d6a4a" stroke="#26382a" stroke-width="3" filter="url(#shadow)"/><text x="215" y="145" text-anchor="middle" font-family="Microsoft YaHei" font-size="12" font-weight="700" fill="#fff4c3">✦ AI驱动的儿童成长规划系统 ✦</text>
<g filter="url(#shadow)"><rect x="301" y="17" width="87" height="38" fill="url(#stone)" stroke="#1d2120" stroke-width="4"/><polygon points="312,26 321,18 330,26 330,42 321,50 312,42" fill="#3bdb73" stroke="#123c22" stroke-width="3"/><text x="338" y="42" font-family="Arial" font-size="16" font-weight="700" fill="#fff">1280</text><text x="374" y="43" font-size="25" font-weight="900" fill="#7fea3f">+</text><rect x="392" y="17" width="31" height="38" fill="url(#stone)" stroke="#1d2120" stroke-width="4"/><text x="407" y="43" text-anchor="middle" font-size="23" fill="#fff">⚙</text></g>
<g filter="url(#shadow)"><rect x="22" y="226" width="188" height="55" fill="url(#greenBtn)" stroke="#284c18" stroke-width="4"/><rect x="220" y="226" width="188" height="55" fill="url(#stone)" stroke="#2c2e2b" stroke-width="4"/></g><g transform="translate(32 233)"><rect width="42" height="42" fill="#e2ab7c" stroke="#39271c" stroke-width="3"/><rect width="42" height="12" fill="#684027"/><rect x="7" y="22" width="5" height="5" fill="#2d241d"/><rect x="28" y="22" width="5" height="5" fill="#2d241d"/><rect x="15" y="33" width="11" height="4" fill="#7f3a2d"/></g><g transform="translate(230 233)"><rect width="42" height="42" fill="#e5b081" stroke="#39271c" stroke-width="3"/><rect width="42" height="12" fill="#69402a"/><rect x="7" y="22" width="5" height="5" fill="#2d241d"/><rect x="28" y="22" width="5" height="5" fill="#2d241d"/><rect x="15" y="33" width="11" height="4" fill="#7f3a2d"/></g><text x="92" y="260" font-family="Microsoft YaHei" font-size="18" font-weight="800" fill="#fff">哥哥 9岁</text><text x="290" y="260" font-family="Microsoft YaHei" font-size="18" font-weight="800" fill="#fff">妹妹 6岁</text><circle cx="190" cy="253" r="13" fill="#e9f4d3" stroke="#4e6e2f" stroke-width="3"/><path d="M184 253l4 4 8-9" fill="none" stroke="#4d7f2a" stroke-width="3"/><circle cx="389" cy="253" r="13" fill="none" stroke="#444" stroke-width="3"/>
<rect x="0" y="282" width="430" height="620" fill="#383532"/>
<g filter="url(#shadow)"><rect x="10" y="287" width="410" height="151" rx="3" fill="url(#parchNoise)" stroke="#504535" stroke-width="5"/></g><g transform="translate(27 309)"><rect width="42" height="42" rx="3" fill="url(#greenBtn)" stroke="#275515" stroke-width="4"/><g stroke="#fff" stroke-width="3"><line x1="12" y1="16" x2="12" y2="28"/><line x1="18" y1="11" x2="18" y2="33"/><line x1="24" y1="15" x2="24" y2="29"/><line x1="30" y1="19" x2="30" y2="25"/></g></g><text x="84" y="331" font-family="Microsoft YaHei" font-size="23" font-weight="900" fill="#2d2116">AI语音观察</text><text x="84" y="357" font-family="Microsoft YaHei" font-size="13" fill="#5c4b37">对孩子的表现说一说</text><text x="84" y="378" font-family="Microsoft YaHei" font-size="13" fill="#5c4b37">AI帮你记录与分析</text><g filter="url(#shadow)"><rect x="273" y="304" width="100" height="91" rx="6" fill="url(#greenBtn)" stroke="#245412" stroke-width="5"/><rect x="313" y="326" width="20" height="39" rx="10" fill="#fff"/><path d="M303 353v6c0 15 40 15 40 0v-6M323 373v12M309 385h28" fill="none" stroke="#fff" stroke-width="5"/></g><g stroke="#63b731" stroke-width="4"><line x1="244" y1="333" x2="244" y2="367"/><line x1="253" y1="342" x2="253" y2="358"/><line x1="388" y1="333" x2="388" y2="367"/><line x1="397" y1="342" x2="397" y2="358"/></g><text x="323" y="420" text-anchor="middle" font-family="Microsoft YaHei" font-size="11" fill="#4f402e">点击开始说话</text>
<g filter="url(#shadow)"><rect x="10" y="448" width="410" height="126" rx="3" fill="url(#parchNoise)" stroke="#504535" stroke-width="5"/></g><rect x="27" y="462" width="38" height="34" rx="3" fill="#e8c989" stroke="#6a5438" stroke-width="3"/><text x="46" y="486" text-anchor="middle" font-size="18">▣</text><text x="75" y="485" font-family="Microsoft YaHei" font-size="19" font-weight="900" fill="#2d2116">今日任务</text><g transform="translate(31 505)"><rect width="52" height="52" fill="#e5d5ad" stroke="#6e5a3c" stroke-width="3"/><path d="M10 11h14v30H10q-5 0-5-5V16q0-5 5-5m32 0H28v30h14q5 0 5-5V16q0-5-5-5" fill="#fff3d4" stroke="#8d6848" stroke-width="2"/><line x1="26" y1="12" x2="26" y2="42" stroke="#8d6848" stroke-width="2"/></g><text x="101" y="525" font-family="Microsoft YaHei" font-size="16" font-weight="900" fill="#2d2116">阅读 30 分钟</text><text x="101" y="548" font-family="Microsoft YaHei" font-size="11" fill="#5b4c3b">培养专注力与理解力</text><text x="284" y="526" font-family="Microsoft YaHei" font-size="12" font-weight="700" fill="#2d2116">◆ +20 经验</text><rect x="101" y="552" width="233" height="17" fill="#897454" stroke="#4b3c28" stroke-width="3"/><rect x="104" y="555" width="159" height="11" fill="#39b82d"/><text x="213" y="565" text-anchor="middle" font-family="Arial" font-size="10" font-weight="700" fill="#fff">20 / 30 分钟</text><g transform="translate(352 500)" filter="url(#shadow)"><rect width="50" height="55" fill="#9b6128" stroke="#4d3423" stroke-width="4"/><rect y="23" width="50" height="8" fill="#4a4035"/><rect x="20" y="19" width="10" height="20" fill="#d5d1bf" stroke="#4f4d42" stroke-width="2"/></g>
<g filter="url(#shadow)"><rect x="10" y="584" width="410" height="112" rx="3" fill="url(#parchNoise)" stroke="#504535" stroke-width="5"/></g><text x="35" y="608" font-size="17">♣</text><text x="58" y="608" font-family="Microsoft YaHei" font-size="17" font-weight="900" fill="#2d2116">技能树</text><text x="354" y="608" font-family="Microsoft YaHei" font-size="11" fill="#3b6e20">查看全部 ›</text><g font-family="Microsoft YaHei" fill="#2d2116"><g transform="translate(20 620)"><rect width="92" height="66" fill="#f4e2ba" stroke="#806d50" stroke-width="2"/><text x="10" y="25" font-size="24">▤</text><text x="40" y="20" font-size="11" font-weight="700">责任闭环</text><text x="40" y="37" font-size="9">Lv.3</text><g fill="#3fbd2e" stroke="#49653c" stroke-width="1"><rect x="12" y="50" width="11" height="8"/><rect x="27" y="50" width="11" height="8"/><rect x="42" y="50" width="11" height="8"/><rect x="57" y="50" width="11" height="8"/></g></g><g transform="translate(119 620)"><rect width="92" height="66" fill="#f4e2ba" stroke="#806d50" stroke-width="2"/><text x="10" y="25" font-size="24">▥</text><text x="40" y="20" font-size="11" font-weight="700">深度阅读</text><text x="40" y="37" font-size="9">Lv.4</text><g fill="#3fbd2e"><rect x="12" y="50" width="11" height="8"/><rect x="27" y="50" width="11" height="8"/><rect x="42" y="50" width="11" height="8"/><rect x="57" y="50" width="11" height="8"/></g></g><g transform="translate(218 620)"><rect width="92" height="66" fill="#f4e2ba" stroke="#806d50" stroke-width="2"/><text x="10" y="25" font-size="24">✎</text><text x="40" y="20" font-size="11" font-weight="700">中文书写</text><text x="40" y="37" font-size="9">Lv.2</text><g fill="#3fbd2e"><rect x="12" y="50" width="11" height="8"/><rect x="27" y="50" width="11" height="8"/><rect x="42" y="50" width="11" height="8"/></g></g><g transform="translate(317 620)"><rect width="92" height="66" fill="#f4e2ba" stroke="#806d50" stroke-width="2"/><text x="10" y="25" font-size="24">●</text><text x="40" y="20" font-size="11" font-weight="700">AI协作</text><text x="40" y="37" font-size="9">Lv.3</text><g fill="#3fbd2e"><rect x="12" y="50" width="11" height="8"/><rect x="27" y="50" width="11" height="8"/><rect x="42" y="50" width="11" height="8"/><rect x="57" y="50" width="11" height="8"/></g></g></g>
<g filter="url(#shadow)"><rect x="10" y="704" width="410" height="119" rx="3" fill="url(#parchNoise)" stroke="#504535" stroke-width="5"/></g><text x="32" y="728" font-size="17">⚑</text><text x="57" y="728" font-family="Microsoft YaHei" font-size="17" font-weight="900" fill="#2d2116">项目工作流</text><text x="350" y="728" font-family="Microsoft YaHei" font-size="11" fill="#3b6e20">生成计划 ›</text><g font-family="Microsoft YaHei" fill="#2d2116"><g transform="translate(20 738)"><rect width="88" height="73" fill="#f6e6bf" stroke="#806d50" stroke-width="2"/><rect x="3" y="3" width="22" height="22" fill="#52ad27"/><text x="14" y="19" text-anchor="middle" fill="#fff" font-size="12" font-weight="700">1</text><text x="28" y="18" font-size="10" font-weight="700">发现问题</text><text x="44" y="45" text-anchor="middle" font-size="21">◇</text><text x="44" y="65" text-anchor="middle" font-size="8">观察与思考</text></g><g transform="translate(121 738)"><rect width="88" height="73" fill="#f6e6bf" stroke="#806d50" stroke-width="2"/><rect x="3" y="3" width="22" height="22" fill="#52ad27"/><text x="14" y="19" text-anchor="middle" fill="#fff" font-size="12" font-weight="700">2</text><text x="28" y="18" font-size="10" font-weight="700">探索学习</text><text x="44" y="45" text-anchor="middle" font-size="21">▥</text><text x="44" y="65" text-anchor="middle" font-size="8">收集信息</text></g><g transform="translate(222 738)"><rect width="88" height="73" fill="#f6e6bf" stroke="#806d50" stroke-width="2"/><rect x="3" y="3" width="22" height="22" fill="#52ad27"/><text x="14" y="19" text-anchor="middle" fill="#fff" font-size="12" font-weight="700">3</text><text x="28" y="18" font-size="10" font-weight="700">动手实践</text><text x="44" y="45" text-anchor="middle" font-size="21">▦</text><text x="44" y="65" text-anchor="middle" font-size="8">形成成果</text></g><g transform="translate(323 738)"><rect width="88" height="73" fill="#f6e6bf" stroke="#806d50" stroke-width="2"/><rect x="3" y="3" width="22" height="22" fill="#52ad27"/><text x="14" y="19" text-anchor="middle" fill="#fff" font-size="12" font-weight="700">4</text><text x="28" y="18" font-size="10" font-weight="700">展示分享</text><text x="44" y="45" text-anchor="middle" font-size="21">★</text><text x="44" y="65" text-anchor="middle" font-size="8">复盘提升</text></g></g>
<rect x="10" y="827" width="410" height="42" fill="#2f6f20" stroke="#183d12" stroke-width="4"/><g transform="translate(18 829)"><rect width="38" height="38" fill="#e3ad7d" stroke="#39271c" stroke-width="3"/><rect width="38" height="10" fill="#684027"/><rect x="7" y="20" width="5" height="5" fill="#2d241d"/><rect x="26" y="20" width="5" height="5" fill="#2d241d"/></g><text x="65" y="850" font-family="Arial" font-size="18" font-weight="900" fill="#f8e43d">Lv.12</text><text x="126" y="844" font-family="Microsoft YaHei" font-size="9" fill="#fff">经验值</text><text x="166" y="846" font-size="15" fill="#ef493a">♥♥♥♥♥♥♡</text><rect x="65" y="854" width="145" height="9" fill="#5a5b55" stroke="#181918" stroke-width="2"/><rect x="67" y="856" width="87" height="5" fill="#62d336"/><text x="218" y="862" font-family="Arial" font-size="10" fill="#fff">860 / 1200</text><rect x="303" y="833" width="105" height="29" fill="url(#blueBtn)" stroke="#0c5b8b" stroke-width="3"/><text x="355" y="852" text-anchor="middle" font-family="Microsoft YaHei" font-size="12" font-weight="700" fill="#fff">成长档案</text>
<rect x="0" y="869" width="430" height="33" fill="#454845"/><g font-family="Microsoft YaHei" font-size="10" font-weight="700" fill="#fff" text-anchor="middle"><g><rect x="5" y="870" width="80" height="31" fill="url(#greenBtn)" stroke="#243f16" stroke-width="3"/><text x="45" y="893">了解</text></g><g><rect x="90" y="870" width="80" height="31" fill="url(#stone)" stroke="#292d2c" stroke-width="3"/><text x="130" y="893">发现</text></g><g><rect x="175" y="870" width="80" height="31" fill="url(#stone)" stroke="#292d2c" stroke-width="3"/><text x="215" y="893">路线</text></g><g><rect x="260" y="870" width="80" height="31" fill="url(#stone)" stroke="#292d2c" stroke-width="3"/><text x="300" y="893">项目</text></g><g><rect x="345" y="870" width="80" height="31" fill="url(#stone)" stroke="#292d2c" stroke-width="3"/><text x="385" y="893">执行</text></g></g>
</svg>